GRF_file
version=1
nRows=10
nColumns=2
inDegrees=no
range 1 10
endheader
time	force
1	-0.7471468302588
2	-0.575152500162752
3	0.0353784178792244
4	0.130566512755447
5	-1.30211364203017
6	0.457328068295945
7	-0.414156963362125
8	0.536100589629824
9	1.29321798267176
10	2.09625891074789
